<?xml version="1.0" encoding="utf-8"?>
<!-- Generator: Adobe Illustrator 22.1.0, SVG Export Plug-In . SVG Version: 6.00 Build 0)  -->
<svg version="1.1" id="Слой_1" xmlns="http://www.w3.org/2000/svg" xmlns:xlink="http://www.w3.org/1999/xlink" x="0px" y="0px"
	 viewBox="0 0 25 24" style="enable-background:new 0 0 25 24;" xml:space="preserve">
<style type="text/css">
	.st0{fill:#FFFFFF;}
</style>
<title>Group</title>
<desc>Created with Sketch.</desc>
<g id="Сбор-заявок" transform="translate(38.000000, 40.000000)">
	<g id="Group" transform="translate(400.000000, 120.000000)">
		<path id="Fill-2825" class="st0" d="M-429.2-149.2c1.4,0,2.5-1.1,2.5-2.4h-5C-431.8-150.3-430.6-149.2-429.2-149.2"/>
		<path id="Fill-2826" class="st0" d="M-421.8-149.2c1.4,0,2.5-1.1,2.5-2.4h-5C-424.2-150.3-423.1-149.2-421.8-149.2"/>
		<path id="Fill-2827" class="st0" d="M-425.5-138.4c-5.5,0-10-4.3-10-9.6s4.5-9.6,10-9.6s10,4.3,10,9.6S-420-138.4-425.5-138.4
			 M-425.5-160c-6.9,0-12.5,5.4-12.5,12s5.6,12,12.5,12s12.5-5.4,12.5-12S-418.6-160-425.5-160"/>
		<path id="Fill-2828" class="st0" d="M-425.5-143.2c-1.6,0-3-0.7-4-1.9l-2,1.4c1.4,1.8,3.6,2.9,6,2.9s4.6-1,6-2.9l-2-1.4
			C-422.5-143.9-423.9-143.2-425.5-143.2"/>
	</g>
</g>
</svg>
