<?xml version="1.0" encoding="utf-8"?>
<!-- Generator: Adobe Illustrator 22.1.0, SVG Export Plug-In . SVG Version: 6.00 Build 0)  -->
<svg version="1.1" id="Слой_1" xmlns="http://www.w3.org/2000/svg" xmlns:xlink="http://www.w3.org/1999/xlink" x="0px" y="0px"
	 viewBox="0 0 25 24" style="enable-background:new 0 0 25 24;" xml:space="preserve">
<style type="text/css">
	.st0{fill:#006DF0;}
</style>
<title>Group</title>
<desc>Created with Sketch.</desc>
<g id="Сбор-заявок" transform="translate(38.000000, 40.000000)">
	<g id="Group" transform="translate(210.000000, 120.000000)">
		<path id="Fill-2817" class="st0" d="M-239.5-149c0.2-0.1,2.5-0.7,2.5-2.8c0-1.3-1.9-1.8-2.5-0.2c-0.6-1.7-2.5-1.1-2.5,0.2
			C-242-149.7-239.5-149-239.5-149"/>
		<path id="Fill-2818" class="st0" d="M-231.5-152c-0.6-1.7-2.5-1.1-2.5,0.2c0,2.1,2.5,2.8,2.5,2.8c0.2-0.1,2.5-0.7,2.5-2.8
			C-229-153.1-230.9-153.6-231.5-152"/>
		<path id="Fill-2819" class="st0" d="M-235.5-138.4c-5.5,0-10-4.3-10-9.6s4.5-9.6,10-9.6s10,4.3,10,9.6S-230-138.4-235.5-138.4
			 M-235.5-160c-6.9,0-12.5,5.4-12.5,12c0,6.6,5.6,12,12.5,12s12.5-5.4,12.5-12C-223-154.6-228.6-160-235.5-160"/>
		<path id="Fill-2820" class="st0" d="M-235.5-144.2c-1.7,0-3.3-0.6-4.3-1.8l-2.2,1.3c1.6,1.7,3.9,2.7,6.5,2.7c2.6,0,5-1,6.5-2.7
			l-2.2-1.3C-232.2-144.9-233.8-144.2-235.5-144.2"/>
	</g>
</g>
</svg>
