<?xml version="1.0" encoding="utf-8"?>
<!-- Generator: Adobe Illustrator 22.1.0, SVG Export Plug-In . SVG Version: 6.00 Build 0)  -->
<svg version="1.1" id="Слой_1" xmlns="http://www.w3.org/2000/svg" xmlns:xlink="http://www.w3.org/1999/xlink" x="0px" y="0px"
	 viewBox="0 0 25 24" style="enable-background:new 0 0 25 24;" xml:space="preserve">
<style type="text/css">
	.st0{fill:#FFFFFF;}
</style>
<title>Group</title>
<desc>Created with Sketch.</desc>
<g id="Сбор-заявок" transform="translate(38.000000, 40.000000)">
	<g id="Group" transform="translate(305.000000, 120.000000)">
		<path id="Fill-2846" class="st0" d="M-330.5-142c-2,0-3.9-1.1-4.6-2.4h9.3C-326.6-143.1-328.4-142-330.5-142 M-324.2-146.8h-12.5
			c-0.7,0-1.2,0.5-1.2,1.2c0,3.1,3.6,6,7.5,6s7.5-2.9,7.5-6C-323-146.3-323.6-146.8-324.2-146.8"/>
		<path id="Fill-2847" class="st0" d="M-330.5-138.4c-5.5,0-10-4.3-10-9.6s4.5-9.6,10-9.6s10,4.3,10,9.6S-325-138.4-330.5-138.4
			 M-330.5-160c-6.9,0-12.5,5.4-12.5,12s5.6,12,12.5,12s12.5-5.4,12.5-12S-323.6-160-330.5-160"/>
		<polygon id="Fill-2848" class="st0" points="-333,-154 -335.5,-154 -335.5,-149.2 -333,-149.2 		"/>
		<polygon id="Fill-2849" class="st0" points="-325.5,-154 -328,-154 -328,-149.2 -325.5,-149.2 		"/>
	</g>
</g>
</svg>
