<?xml version="1.0" encoding="UTF-8"?>
<svg width="25px" height="24px" viewBox="0 0 25 24" version="1.1" xmlns="http://www.w3.org/2000/svg" xmlns:xlink="http://www.w3.org/1999/xlink">
    <!-- Generator: sketchtool 51 (57462) - http://www.bohemiancoding.com/sketch -->
    <title>C1418BBA-3EE4-4A23-9821-0B2EDF88292C</title>
    <desc>Created with sketchtool.</desc>
    <defs></defs>
    <g id="Page-1" stroke="none" stroke-width="1" fill="none" fill-rule="evenodd">
        <g id="Вход-в-лк" transform="translate(-904.000000, -159.000000)">
            <rect fill="#FFFFFF" x="0" y="0" width="1118" height="856"></rect>
            <g id="Group-Copy" transform="translate(904.000000, 159.000000)" fill="#006DF0">
                <path d="M8.50064416,11 C8.71064159,10.895247 11,10.2950994 11,8.18476225 C11,6.92445232 9.0919866,6.37777243 8.539294,8.03199741 C7.98788972,6.37777243 6,6.92445232 6,8.18476225 C6,10.2950994 8.50064416,11 8.50064416,11" id="Fill-2817"></path>
                <path d="M16.5405614,8.03259629 C15.9881535,6.37761414 14,6.92418372 14,8.1853303 C14,10.2941507 16.5006438,11 16.5006438,11 C16.7118208,10.8952681 19,10.2941507 19,8.1853303 C19,6.92418372 17.0929694,6.37761414 16.5405614,8.03259629" id="Fill-2818"></path>
                <path d="M12.5,21.6 C6.98625,21.6 2.5,17.2932 2.5,12 C2.5,6.7068 6.98625,2.4 12.5,2.4 C18.01375,2.4 22.5,6.7068 22.5,12 C22.5,17.2932 18.01375,21.6 12.5,21.6 M12.5,0 C5.6075,0 0,5.3832 0,12 C0,18.618 5.6075,24 12.5,24 C19.3925,24 25,18.618 25,12 C25,5.3832 19.3925,0 12.5,0" id="Fill-2819"></path>
                <path d="M12.4979681,15.7783949 C10.780348,15.7783949 9.20089611,15.1319078 8.16463478,14.0033324 L6,15.3396279 C7.5537147,17.0313802 9.92153798,18 12.4979681,18 C15.078462,18 17.4489945,17.0291586 19,15.3351847 L16.832656,14 C15.7991039,15.130797 14.2182974,15.7783949 12.4979681,15.7783949" id="Fill-2820"></path>
            </g>
        </g>
    </g>
</svg>