<?xml version="1.0" encoding="UTF-8"?>
<svg width="25px" height="24px" viewBox="0 0 25 24" version="1.1" xmlns="http://www.w3.org/2000/svg" xmlns:xlink="http://www.w3.org/1999/xlink">
    <!-- Generator: sketchtool 51 (57462) - http://www.bohemiancoding.com/sketch -->
    <title>A40A65B5-5472-4A26-89F0-2504EFB50D3E</title>
    <desc>Created with sketchtool.</desc>
    <defs></defs>
    <g id="Page-1" stroke="none" stroke-width="1" fill="none" fill-rule="evenodd">
        <g id="Вход-в-лк" transform="translate(-904.000000, -305.000000)">
            <rect fill="#FFFFFF" x="0" y="0" width="1118" height="856"></rect>
            <g id="Group-Copy-3" transform="translate(904.000000, 305.000000)" fill="#006DF0">
                <path d="M8.75,10.8 C10.13,10.8 11.25,9.7248 11.25,8.4 L6.25,8.4 C6.25,9.7248 7.37,10.8 8.75,10.8" id="Fill-2825"></path>
                <path d="M16.25,10.8 C17.63,10.8 18.75,9.7248 18.75,8.4 L13.75,8.4 C13.75,9.7248 14.87,10.8 16.25,10.8" id="Fill-2826"></path>
                <path d="M12.5,21.6 C6.98625,21.6 2.5,17.2932 2.5,12 C2.5,6.7068 6.98625,2.4 12.5,2.4 C18.01375,2.4 22.5,6.7068 22.5,12 C22.5,17.2932 18.01375,21.6 12.5,21.6 M12.5,0 C5.6075,0 0,5.3832 0,12 C0,18.618 5.6075,24 12.5,24 C19.3925,24 25,18.618 25,12 C25,5.3832 19.3925,0 12.5,0" id="Fill-2827"></path>
                <path d="M12.5,16.8 C10.915,16.8 9.4575,16.1016 8.50125,14.8824 L6.50375,16.326 C7.9375,18.1536 10.1225,19.2 12.5,19.2 C14.88125,19.2 17.06875,18.1512 18.5,16.3212 L16.5,14.8788 C15.54625,16.1004 14.0875,16.8 12.5,16.8" id="Fill-2828"></path>
            </g>
        </g>
    </g>
</svg>