<?xml version="1.0" encoding="UTF-8"?>
<svg width="63px" height="54px" viewBox="0 0 63 54" version="1.1" xmlns="http://www.w3.org/2000/svg" xmlns:xlink="http://www.w3.org/1999/xlink">
    <!-- Generator: sketchtool 51 (57462) - http://www.bohemiancoding.com/sketch -->
    <title>0E78A66B-A06B-4B84-91DB-8ADC3AAE9519</title>
    <desc>Created with sketchtool.</desc>
    <defs></defs>
    <g id="Page-1" stroke="none" stroke-width="1" fill="none" fill-rule="evenodd">
        <g id="Artboard-2" transform="translate(-367.000000, -236.000000)" fill="#3742FA" fill-rule="nonzero">
            <g id="Ресурс-3" transform="translate(367.000000, 236.000000)">
                <path d="M54,11.3684211 L45.4736842,11.3684211 L45.4736842,5.68421053 C45.4736842,2.54490774 42.9287765,1.92226856e-16 39.7894737,0 L22.7368421,0 C19.5975393,-1.92226856e-16 17.0526316,2.54490774 17.0526316,5.68421053 L17.0526316,11.3684211 L8.52631579,11.3684211 C3.81736161,11.3684211 5.76680567e-16,15.1857827 0,19.8947368 L0,31.2631579 L2.84210526,31.2631579 L2.84210526,45.4736842 C2.84210526,50.1826384 6.65946687,54 11.3684211,54 L51.1578947,54 C55.8668489,54 59.6842105,50.1826384 59.6842105,45.4736842 L59.6842105,31.2631579 L62.5263158,31.2631579 L62.5263158,19.8947368 C62.5263158,15.1857827 58.7089542,11.3684211 54,11.3684211 Z M22.7368421,5.68421053 L39.7894737,5.68421053 L39.7894737,11.3684211 L22.7368421,11.3684211 L22.7368421,5.68421053 Z M54,45.4736842 C54,47.0433356 52.7275461,48.3157895 51.1578947,48.3157895 L11.3684211,48.3157895 C9.79876966,48.3157895 8.52631579,47.0433356 8.52631579,45.4736842 L8.52631579,31.2631579 L19.8947368,31.2631579 C19.8947368,34.4024607 22.4396446,36.9473684 25.5789474,36.9473684 L36.9473684,36.9473684 C40.0866712,36.9473684 42.6315789,34.4024607 42.6315789,31.2631579 L54,31.2631579 L54,45.4736842 Z M25.5789474,31.2631579 L25.5789474,25.5789474 L36.9473684,25.5789474 L36.9473684,31.2631579 L25.5789474,31.2631579 Z M56.8421053,25.5789474 L42.6315789,25.5789474 C42.6315789,22.4396446 40.0866712,19.8947368 36.9473684,19.8947368 L25.5789474,19.8947368 C22.4396446,19.8947368 19.8947368,22.4396446 19.8947368,25.5789474 L5.68421053,25.5789474 L5.68421053,19.8947368 C5.68421053,18.3250854 6.9566644,17.0526316 8.52631579,17.0526316 L54,17.0526316 C55.5696514,17.0526316 56.8421053,18.3250854 56.8421053,19.8947368 L56.8421053,25.5789474 Z" id="Shape"></path>
            </g>
        </g>
    </g>
</svg>