<?xml version="1.0" encoding="UTF-8"?>
<svg width="65px" height="54px" viewBox="0 0 65 54" version="1.1" xmlns="http://www.w3.org/2000/svg" xmlns:xlink="http://www.w3.org/1999/xlink">
    <!-- Generator: sketchtool 51 (57462) - http://www.bohemiancoding.com/sketch -->
    <title>37025573-E127-4317-A50B-C621E3703AD4</title>
    <desc>Created with sketchtool.</desc>
    <defs></defs>
    <g id="Page-1" stroke="none" stroke-width="1" fill="none" fill-rule="evenodd">
        <g id="Artboard-2" transform="translate(-451.000000, -236.000000)" fill="#3742FA" fill-rule="nonzero">
            <g id="Ресурс-2" transform="translate(451.000000, 236.000000)">
                <path d="M59.5833333,54 L5.41666667,54 C2.42512427,54 3.66358282e-16,51.5823376 0,48.6 L0,5.4 C-3.66358282e-16,2.41766235 2.42512427,5.47846538e-16 5.41666667,0 L59.5833333,0 C62.5748757,1.82615513e-16 65,2.41766235 65,5.4 L65,48.6 C65,51.5823376 62.5748757,54 59.5833333,54 Z M5.41666667,5.4 L5.41666667,48.6 L59.5833333,48.6 L59.5833333,5.4 L5.41666667,5.4 Z" id="Shape"></path>
                <polygon id="Shape" points="20.0958333 39.906 8.96458333 32.508 12.7020833 26.892 17.8208333 30.294 26.8395833 14.526 32.74375 17.874"></polygon>
                <rect id="Rectangle-path" x="37.9166667" y="18.9" width="16.25" height="5.4"></rect>
                <rect id="Rectangle-path" x="37.9166667" y="29.7" width="16.25" height="5.4"></rect>
            </g>
        </g>
    </g>
</svg>