<?xml version="1.0" encoding="UTF-8"?>
<svg width="54px" height="54px" viewBox="0 0 54 54" version="1.1" xmlns="http://www.w3.org/2000/svg" xmlns:xlink="http://www.w3.org/1999/xlink">
    <!-- Generator: sketchtool 51 (57462) - http://www.bohemiancoding.com/sketch -->
    <title>5FB025C3-1835-4D0F-8800-A72B5D14C852</title>
    <desc>Created with sketchtool.</desc>
    <defs></defs>
    <g id="Page-1" stroke="none" stroke-width="1" fill="none" fill-rule="evenodd">
        <g id="Artboard-2" transform="translate(-292.000000, -236.000000)" fill="#3742FA" fill-rule="nonzero">
            <g id="Ресурс-1" transform="translate(292.000000, 236.000000)">
                <path d="M45.8666298,44.9993638 L8.13337021,44.9993638 C6.8404864,45.0264741 5.70939016,44.1843967 5.43813738,42.9928196 L0.0476717217,22.6733843 C-0.148791777,21.7011067 0.271962062,20.7098333 1.12576485,20.1334549 C1.99842014,19.5168848 3.17937682,19.4567276 4.11747329,19.9810592 L15.4104988,26.3308827 L24.7629568,13.1232498 C25.2636279,12.4211384 26.1023593,12 27,12 C27.8976407,12 28.7363721,12.4211384 29.2370432,13.1232498 L38.5895012,26.3308827 L49.8825267,19.9556599 C50.8259845,19.438647 52.0071737,19.5088443 52.8742351,20.1334549 C53.7280379,20.7098333 54.1487918,21.7011067 53.9523283,22.6733843 L48.5618626,42.9928196 C48.2906098,44.1843967 47.1595136,45.0264741 45.8666298,44.9993638 Z M10.2356518,39.919505 L43.7643482,39.919505 L47.0525322,27.4738509 L39.1555001,31.9441267 C37.9275978,32.6323151 36.343196,32.2980376 35.5438881,31.1821479 L27,19.0920839 L18.4561119,31.1821479 C17.656804,32.2980376 16.0724022,32.6323151 14.8444999,31.9441267 L6.94746776,27.4738509 L10.2356518,39.919505 Z" id="Shape"></path>
                <rect id="Rectangle-path" x="8.47058824" y="49" width="38.1176471" height="5"></rect>
                <rect id="Rectangle-path" transform="translate(27.000000, 5.500000) rotate(-45.000000) translate(-27.000000, -5.500000) " x="23.2941176" y="2" width="7.41176471" height="7" rx="0.5"></rect>
            </g>
        </g>
    </g>
</svg>