<?xml version="1.0" encoding="UTF-8"?>
<svg width="9px" height="12px" viewBox="0 0 9 12" version="1.1" xmlns="http://www.w3.org/2000/svg" xmlns:xlink="http://www.w3.org/1999/xlink">
    <!-- Generator: sketchtool 51 (57462) - http://www.bohemiancoding.com/sketch -->
    <title>9CB0AAE2-9739-41EC-B7CD-8431B464A2D8</title>
    <desc>Created with sketchtool.</desc>
    <defs></defs>
    <g id="Page-1" stroke="none" stroke-width="1" fill="none" fill-rule="evenodd">
        <g id="Главная-12-колонок" transform="translate(-1120.000000, -30.000000)">
            <rect fill="#FFFFFF" x="0" y="0" width="1440" height="5872"></rect>
            <g id="Верхняя-шапка" fill="#3742FA">
                <path d="M1124.5,36 C1123.672,36 1123,35.3286 1123,34.5 C1123,33.6714 1123.672,33 1124.5,33 C1125.3286,33 1126,33.6714 1126,34.5 C1126,35.3286 1125.3286,36 1124.5,36 M1124.5,30 C1122.01471,30 1120,31.8804 1120,34.2 C1120,37.2 1124.5,42 1124.5,42 C1124.5,42 1129,37.2 1129,34.2 C1129,31.8804 1126.98529,30 1124.5,30" id="Fill-1"></path>
            </g>
        </g>
    </g>
</svg>