<svg width="63" height="54" xmlns="http://www.w3.org/2000/svg"><g fill="none" fill-rule="evenodd"><path fill="#FFF" d="M-689-929H751v5872H-689z"/><path d="M54 11.368h-8.526V5.684A5.684 5.684 0 0 0 39.789 0H22.737a5.684 5.684 0 0 0-5.684 5.684v5.684H8.526A8.526 8.526 0 0 0 0 19.895v11.368h2.842v14.21A8.526 8.526 0 0 0 11.368 54h39.79a8.526 8.526 0 0 0 8.526-8.526v-14.21h2.842v-11.37A8.526 8.526 0 0 0 54 11.369zM22.737 5.684h17.052v5.684H22.737V5.684zM54 45.474a2.842 2.842 0 0 1-2.842 2.842h-39.79a2.842 2.842 0 0 1-2.842-2.842v-14.21h11.369a5.684 5.684 0 0 0 5.684 5.683h11.368a5.684 5.684 0 0 0 5.685-5.684H54v14.21zm-28.421-14.21v-5.685h11.368v5.684H25.58zm31.263-5.685h-14.21a5.684 5.684 0 0 0-5.685-5.684H25.58a5.684 5.684 0 0 0-5.684 5.684H5.685v-5.684a2.842 2.842 0 0 1 2.841-2.842H54a2.842 2.842 0 0 1 2.842 2.842v5.684z" fill="#3742FA" fill-rule="nonzero"/></g></svg>