<svg width="161" height="62" xmlns="http://www.w3.org/2000/svg"><g fill="none" fill-rule="evenodd"><path fill="#FFF" d="M-165-112h1440v5872H-165z"/><path d="M3.2 52.5h1.6L8 60.8H6.3l-.6-1.7H2.3l-.7 1.7H0l3.2-8.3zm.8 2.2l-1.1 2.9h2.2L4 54.7zm5.2-2.2h4.1V54h-2.5v6.7H9.2v-8.2zm5.3 0H19V54h-2.9v1.5H19V57h-2.9v2.2H19v1.5h-4.5v-8.2zm6 0h1.6v3.1h2.8v-3.1h1.6v8.3h-1.6v-3.6h-2.8v3.6h-1.6v-8.3zm7 0h4.6v1.6h-1.5v6.7H29v-6.7h-1.5v-1.6zM40.7 54l-1.1 1c-.7-.8-1.6-1.2-2.5-1.2-.8 0-1.5.3-2 .8s-.8 1.2-.8 2c0 .6.1 1 .4 1.5.2.4.6.8 1 1 .4.2.9.4 1.5.4.5 0 .9-.1 1.3-.3.4-.2.8-.5 1.2-.9l1.1 1.1c-.6.6-1.2 1-1.7 1.2-.5.2-1.2.3-1.9.3-1.3 0-2.3-.4-3.2-1.2-.8-.8-1.2-1.9-1.2-3.1 0-.8.2-1.6.6-2.2.4-.6.9-1.2 1.6-1.5.7-.4 1.4-.6 2.2-.6.7 0 1.3.1 2 .4.5.3 1.1.7 1.5 1.3zm.6-1.5h4.6v1.6h-1.5v6.7h-1.6v-6.7h-1.5v-1.6zm5.6 8.3v-8.3h1.3c.8 0 1.3 0 1.7.1.5.1.9.4 1.2.7.3.4.4.8.4 1.3 0 .3-.1.6-.2.9-.1.3-.3.5-.6.7.5.2.9.5 1.1.9.2.4.3.8.3 1.3s-.1.9-.4 1.3c-.2.4-.6.7-.9.9-.4.2-.9.3-1.6.3h-2.3v-.1zm1.6-6.8v1.8h.4c.4 0 .7-.1.9-.2.2-.2.3-.4.3-.7 0-.3-.1-.5-.3-.6-.2-.2-.5-.2-.8-.2h-.5V54zm0 3.2v2.1h.4c.7 0 1.1-.1 1.3-.2.2-.2.3-.4.3-.7 0-.4-.1-.6-.4-.8-.3-.2-.7-.3-1.3-.3h-.3v-.1zm9-4.9c1.2 0 2.2.4 3 1.3.8.8 1.3 1.9 1.3 3.1 0 1.2-.4 2.2-1.2 3.1-.8.8-1.8 1.3-3 1.3s-2.3-.4-3.1-1.3c-.8-.9-1.2-1.9-1.2-3.1 0-.8.2-1.5.6-2.2.4-.7.9-1.2 1.6-1.6.5-.4 1.2-.6 2-.6zm0 1.5c-.8 0-1.4.3-1.9.8s-.8 1.2-.8 2c0 .9.3 1.6 1 2.2.5.4 1.1.6 1.7.6.7 0 1.4-.3 1.9-.8s.8-1.2.8-2-.3-1.5-.8-2c-.6-.5-1.2-.8-1.9-.8zm48.3-1.3h1.7c.9 0 1.6.1 2 .3.4.2.7.4.9.8.2.4.3.8.3 1.3 0 .6-.2 1.1-.5 1.4-.3.4-.7.7-1.2.8-.3.1-.9.1-1.7.1v3.5h-1.6v-8.2h.1zm1.5 3.2h.5c.4 0 .7 0 .8-.1.2-.1.3-.2.4-.3.1-.1.1-.3.1-.5 0-.3-.1-.6-.4-.7-.2-.1-.5-.2-1-.2h-.4v1.8zm4.9-3.2h4.5V54h-2.9v1.5h2.9V57h-2.9v2.2h2.9v1.5h-4.5v-8.2zm6 0h1.6v2.9l2.2-2.9h1.9l-2.9 3.7 3.2 4.6h-1.9l-2.5-3.7v3.7h-1.6v-8.3zm12.5 8.3l-2.3-6.1-2.3 6.1h-1.7l3.2-8.3h1.6l3.2 8.3h-1.7zm5.1-8.3h1.6l3.2 8.3H139l-.6-1.7H135l-.7 1.7h-1.6l3.1-8.3zm.8 2.2l-1.1 2.9h2.2l-1.1-2.9zm6-2.2h1.5l1.9 5.8 1.9-5.8h1.5l1.4 8.3h-1.5l-.9-5.2-1.7 5.2h-1.4l-1.7-5.2-.9 5.2h-1.5l1.4-8.3zm15.8 0h1.6v8.3h-1.6v-8.3zm-6.3 8.3v-8.3h1.6v3.1h.3c.7 0 1.2.1 1.6.2.4.2.8.4 1.1.9.3.4.5.9.5 1.5s-.1 1-.4 1.4c-.3.4-.6.7-.9.8-.4.2-.9.2-1.5.2h-2.3v.2zm1.6-3.8v2.3h.4c.7 0 1.1-.1 1.3-.2.2-.2.3-.4.3-.8 0-.8-.6-1.2-1.7-1.2h-.3V57zm-87.4-4.5h1.6v8.3h-1.6v-8.3zm3.4 0h1.5l3.6 5.5v-5.5h1.6v8.3h-1.5l-3.5-5.4v5.4h-1.6v-8.3h-.1zm8.5 0h1.9c1.2 0 2.1.2 2.7.4.6.3 1.1.8 1.4 1.5.4.7.6 1.5.6 2.4 0 .6-.1 1.2-.3 1.8-.2.5-.5 1-.9 1.3-.4.4-.8.6-1.2.7-.4.1-1.2.2-2.3.2h-1.9v-8.3zm1.6 1.5v5.2h.7c.7 0 1.2-.1 1.6-.2.3-.2.6-.4.8-.8.2-.4.3-.9.3-1.4 0-.9-.2-1.6-.7-2-.5-.6-1.2-.8-2.2-.8h-.5zm10.3-1.7c1.2 0 2.2.4 3 1.3.8.8 1.3 1.9 1.3 3.1 0 1.2-.4 2.2-1.2 3.1-.8.8-1.8 1.3-3 1.3s-2.3-.4-3.1-1.3c-.8-.9-1.2-1.9-1.2-3.1 0-.8.2-1.5.6-2.2.4-.7.9-1.2 1.6-1.6.5-.4 1.3-.6 2-.6zm0 1.5c-.8 0-1.4.3-1.9.8s-.8 1.2-.8 2c0 .9.3 1.6 1 2.2.5.4 1.1.6 1.7.6.7 0 1.4-.3 1.9-.8s.8-1.2.8-2-.3-1.5-.8-2-1.1-.8-1.9-.8zm5.9-1.3h1.7c.9 0 1.6.1 2 .2.4.2.7.4.9.8.2.4.4.8.4 1.3s-.1 1-.4 1.4c-.3.4-.7.6-1.2.8l1.9 3.7h-1.7l-1.9-3.5h-.2v3.5H96v-8.2zm1.6 3.2h.5c.5 0 .9-.1 1-.2.2-.1.3-.4.3-.7 0-.2 0-.3-.1-.5-.1-.1-.2-.2-.4-.3-.2.1-.5 0-.9 0h-.4v1.7z" fill="#000" fill-rule="nonzero"/><path d="M73 24.1c.8 1.4 1.4 2.8 1.6 4.4.3 2.3-.4 4.9-1.9 6.6-2.4 2.8-6.4 3.7-10.1 3.8-1.4 3.4-3.8 6.8-7.2 7.9-2.2.7-4.8.4-6.8-.7-2.7-1.5-4.6-4.3-5.8-7.2-3.9-.1-8.2-1.1-10.4-4.4-2.4-3.5-1.9-7.2 0-10.4-1.9-3.2-2.4-6.9 0-10.4 2.3-3.3 6.5-4.3 10.4-4.4 1.6-3.6 4.1-7.2 8-8.1 6.1-1.4 9.8 3.1 11.9 8.1 3.7.1 7.7 1 10.1 3.8 1.5 1.8 2.2 4.3 1.9 6.6-.3 1.6-.9 3.1-1.7 4.4z" fill="#A2C7FF"/><path d="M35.1 26.8h1.3c.4 0 .9 0 1.3.1.5 0 1 .1 1.5.2s1 .2 1.4.4c.8.3 1.5 1 1.5 2v.4l-.1.3c-.4 1.1-1.2 2-2.1 2.8-.6.5-1.2.9-1.9 1.2v.1c.2.4.3.8.5 1.3s.3 1 .3 1.5c0 .9-.4 1.7-1.2 2.2-.5.4-1.1.7-1.7 1-.9.5-1.8.7-2.8.7H33c-1 0-1.9-.6-2.5-1.4-.5-.6-.9-1.2-1.2-1.9-.3-.5-.6-1.1-.8-1.6h-.1c-.3.1-.6.1-.8.1h-.3c-3 1.1-6.2 2-9.4 2.8-4.3 1-8.6 1.8-12.9 2.5h-.5c-1.5 0-2.5-1-2.7-2.4V37h.7c.2-.2.3-.3.4-.5.3-.3.5-.7.8-1 .3-.5.5-.9.7-1.4.1-.3.2-.6.2-.9v-.3l.1-.3c.1-.2.2-.4.2-.6.1-.2.1-.3.2-.5H5c-.4.1-.8.1-1.2.2h-.7c-.8 0-1.7-.2-2.3-.8l-.8-.8.6-1.1c.4-.7 1-1.3 1.5-1.9.7-.7 1.5-1.4 2.4-1.9l.6-.4h.1c.5-.2 1.2-.5 1.8-.5h1c.3-.4.5-.8.7-1.3.3-.7.5-1.3.7-2 .2-.8.4-1.5.7-2.3.6-1.9 1.2-3.9 1.8-5.8.4-1.5.9-2.9 1.3-4.4.3-1.1.6-2.2 1.2-3.2.6-1.1 1.7-1.7 2.8-2.1 1.5-.7 3.3-1.6 5-1.8l1.1-.1.5 1c1 1.8 1.9 3.6 2.9 5.5s1.8 3.9 2.7 5.8c1.3 2.8 2.5 5.5 3.8 8.3.5 1.7 1.2 3.3 1.9 4.9zM12 33.4s0 .1 0 0v.4l-.1.2c-.1.2-.1.3-.2.5 1.3 0 2.6-.2 3.9-.3 1.2-.1 2.4-.3 3.6-.5-.8-.1-1.6-.3-2.4-.4-1.1-.2-2.2-.4-3.3-.4-.5 0-1 .1-1.4.3 0 .1-.1.2-.1.2zm4.7-8.5c.5.1 1.1.1 1.4.1 1.3 0 2.7.2 4 .4l2.1.3c-.1-.2-.1-.3-.2-.5l-1.2-3.1c-.7-1.7-1.4-3.4-2.2-5.1-.2-.4-.4-.7-.5-1.1-.3.6-.5 1.2-.8 1.8l-1.2 3c-.4.9-.7 1.9-1 2.9-.2.4-.3.9-.4 1.3z" fill="#A2C7FF"/><path d="M17.5 36.5c-.5.1-1.1.1-1.6.2-1.4.2-2.8.3-4.1.3H8.2l1.3-3.4c0-.1.1-.2.1-.2v-.2l.1-.8.5-.6c.2-.2.5-.4.7-.6.8-.5 1.7-.7 2.7-.7 1.3 0 2.5.2 3.7.4.8.1 1.6.3 2.4.4l15 2.7-4.2.6.2.5c.2.5.4.9.7 1.4.3.5.7 1.1 1 1.6.1.1.4.5.5.5h.3c.6 0 1.1-.2 1.6-.4.4-.2.9-.5 1.3-.8l.1-.1h.1c0-.3-.1-.5-.2-.8-.1-.4-.3-.7-.4-1.1v-.1l-.9-2.2 2.2-1c.5-.2.9-.5 1.3-.8.5-.4.9-.8 1.2-1.4-.2-.1-.5-.1-.8-.2-.4-.1-.8-.1-1.3-.2h-1.9c-.3 0-.5 0-.7-.1l-1.5-.2-.5-1.4c-.6-1.6-1.3-3.2-2-4.8-1.2-2.8-2.5-5.5-3.7-8.2-.9-1.9-1.8-3.9-2.7-5.8-.8-1.6-1.7-3.3-2.5-4.9-1.2.3-2.6.9-3.7 1.5H18l-.2.1c-.5.2-1.2.5-1.4 1-.4.8-.7 1.8-1 2.6-.4 1.5-.8 3-1.3 4.5-.6 1.9-1.2 3.9-1.8 5.8-.2.7-.4 1.5-.6 2.2-.2.8-.5 1.5-.8 2.3-.3.7-.6 1.3-1.1 1.9l-.7.9H6.9c-.2 0-.6.2-.8.3l-.5.3c-.7.4-1.3.9-1.9 1.5l-.4.4h.2c.3 0 .7-.1 1-.1h4l-1.2 3.3c-.1.2-.1.3-.2.5s-.1.4-.2.6c0 .6-.2 1.2-.4 1.7-.3.6-.5 1.1-.9 1.6-.3.5-.6.9-1 1.3-.2.2-.3.4-.5.5l-.1.1c0 .2.1.3.3.3h.2c4.2-.7 8.5-1.4 12.6-2.4.3-.3.4-.3.4-.3zm-3.2-12.2c.1-.5.2-1 .4-1.4.3-1 .7-2 1-3 .4-1 .8-2.1 1.2-3.1.3-.6.5-1.2.8-1.9l2.1-4.6 2.3 4.5.6 1.2c.8 1.7 1.6 3.5 2.3 5.3l1.2 3.1c.1.1.1.3.2.4l1.7 4-4.3-.6-2.1-.3c-1.2-.2-2.4-.3-3.5-.4-.6 0-1.2 0-1.8-.1l-2.6-.4.5-2.7z" fill="#3742FA"/><path d="M118.9 24.9c.3-.7.7-1.3 1.2-1.9l1.9-1.8c0-.1.1-.4.1-.5v-5c0-3.2 1.8-5.4 5.1-5.4h27.5c3.3 0 5.4 2 5.4 5.3v21c0 1-.4 2-1 2.7-.7.8-1.8 1.2-2.9 1.2h-1.6c-2.5 0-4.3-1.5-4.3-4.1V20H146v16.6c0 1-.4 2-1.1 2.7-.7.8-1.7 1.2-2.8 1.2h-1.6c-2.5 0-4.3-1.5-4.3-4.1V20h-4.3v16.4c0 2.5-1.8 4.1-4.2 4.1h-5c-2.2 0-3.8-1.2-4.1-3.2-.2.5-.5 1-.9 1.4-1 1.2-2.4 1.8-3.9 1.8H97c-1.5 0-2.9-.5-4-1.4-1.2-1-1.8-2.4-1.8-3.9V19.5c-.8.4-1.7.5-2.6.5h-5.2v1l1.9 1.8c1.4 1.3 1.7 3.2 1.7 5v8.6c0 2.5-1.7 4.1-4.2 4.1h-5c-2.5 0-4.2-1.6-4.2-4.1V20h-5.3c-1.2 0-2.3-.2-3.2-1-.9-.8-1.3-2-1.3-3.2v-1.4c0-2.7 2.1-4.1 4.6-4.1h20.2c1.7 0 3.2.6 4 1.8 1-1.2 2.6-1.8 4.6-1.8h16.5c1.4 0 2.6.4 3.7 1.3 1 .9 1.7 2.1 1.7 3.4v9.9h-.2zm-9.8 6V20H101v.6c0 .1 0 .3.1.4l1.9 1.8c1.4 1.3 1.7 3.2 1.7 5v3h.1l4.3.1z" fill="#A2C7FF"/><path d="M66.5 17.2c.4.3 1.1.4 1.6.4h7.8v18.9c0 1.2.6 1.7 1.8 1.7h5c1.1 0 1.8-.5 1.8-1.7v-8.6c0-1.1-.1-2.4-1-3.2l-2.3-2.2-.2-.6c-.1-.4-.2-.8-.2-1.2v-3.1h7.7c.4 0 1.1 0 1.5-.3l2.1-1.1-1.7-2.6c-.4-.6-1.3-.7-1.9-.7H68.2c-1.1 0-2.2.3-2.2 1.6v1.4c.1.4.2.9.5 1.3zm25.8-1.1l1.3-.7v19.8c0 .8.4 1.5 1 2.1.7.6 1.5.8 2.4.8h16.6c.8 0 1.5-.3 2-.9.2-.3.4-.5.5-.8l.2-.5V15.1c0-.6-.4-1.2-.8-1.6-.6-.5-1.3-.7-2.1-.7H97c-1 0-2.1.2-2.7 1l-2 2.3zm18.3 16.8c-.1 0-.1.1-.2.1l-.6.4h-5.6l-.5-.2c-.1 0-.2-.1-.3-.2l-1.2-.7v-4.4c0-1-.1-2.5-.9-3.2L99 22.5l-.3-.5c-.2-.4-.2-.9-.2-1.3v-3.1h13v14.6l-.9.7zm9-3l1.3 7.1c.2.9.9 1.2 1.7 1.2h5c1.1 0 1.8-.5 1.8-1.7V17.6h9.2v19c0 1.2.7 1.6 1.9 1.6h1.6c.4 0 .7-.1 1-.4.3-.3.4-.6.4-1V17.6h9.2v19c0 1.2.8 1.6 1.9 1.6h1.6c.4 0 .8-.1 1-.4.3-.3.4-.6.4-1v-21c0-2-1-2.9-3-2.9h-27.5c-1.9 0-2.6 1.1-2.6 2.9v5c0 .4-.1.9-.2 1.3l-.2.5-2.3 2.2c-.3.3-.5.6-.6.9l-1.6 4.2z" fill="#3742FA"/><path d="M62.1 24.2c0 1.8-.1 3.5-.3 5.1 2.6-1.6 4.8-3.4 6.4-5.2-1.6-1.8-3.9-3.6-6.6-5.3.3 2.2.5 4.1.5 5.4zM52.7 18c3.3 0 5.9 2.7 5.9 6s-2.7 6-5.9 6c-3.3 0-5.9-2.7-5.9-6-.1-3.3 2.6-6 5.9-6zm15.9 5.6c-1.7-2-4.2-3.9-7.1-5.7-.2-1.1-.4-2.3-.7-3.5 4.1-.3 7.5.3 9.5 1.9.7.6.8.7.8 1.6 0 1.8-.9 3.8-2.5 5.7zm-19.3 9.3c.8.3 1.5.6 2.3.8-2.1.6-4.1 1-6 1.1-.4-1.4-.7-2.8-1-4.4 1.8 1.2 3.5 2 4.7 2.5zm3.5 1.2c-2.5.8-4.9 1.2-7.1 1.4 1.3 4.1 3.4 7.1 5.8 8 .8.3 1 .3 1.8-.2 2.2-1.2 4-4.1 5.3-8-1.9-.2-3.8-.6-5.8-1.2zm7.6 1.5c-1.4 4.3-3.5 7.3-6 8.2-1.3.4-3 .2-4.2-.5-2.1-1.2-3.9-3.9-5.2-7.7-4.7.3-8.4-.7-10-3-2-2.8-.9-5.8 1.4-8.5-2.3-2.7-3.3-5.7-1.4-8.5 1.6-2.2 5.3-3.3 10-3 1.5-4.5 3.8-7.6 6.5-8.2 4.6-1.1 7.3 3.2 8.9 8.2 4.5-.3 8.2.5 9.9 2.6.9 1.1 1.3 2.7 1.1 4.1-.2 1.5-1 3.2-2.3 4.8 1.3 1.6 2.1 3.3 2.3 4.8.2 1.4-.2 3-1.1 4.1-1.8 2-5.4 2.9-9.9 2.6zm-.9-18.7c-.1-.8-.3-1.5-.5-2.2-1 .1-2.1.3-3.2.6.1 0 .2.1.3.1 1.3.4 2.4 1 3.4 1.5zm-6.7-2.7c2-.6 4-1 5.8-1.3-1.3-4.2-3.4-7.2-5.8-8.2-.6-.3-.8-.2-1.4.1-2.3 1-4.3 3.9-5.6 8 2.1.1 4.5.6 7 1.4zM37.6 25.4c-1.8 2.1-2.8 4.2-2.8 6 0 .7.1.8.6 1.3 1.8 1.8 5.2 2.5 9.4 2.2-.5-1.5-.8-3.1-1.1-4.9-2.1-1.3-4.3-2.9-6.1-4.6zm-2.2-9.8c-.5.5-.6.6-.6 1.3 0 1.9 1 3.9 2.8 6 1.8-1.8 4-3.3 6.2-4.6.3-1.7.6-3.4 1.1-4.9-4.3-.3-7.7.4-9.5 2.2zm10.1-2.2c-.4 1.4-.7 2.8-1 4.4 1.9-1.1 3.6-1.9 4.7-2.4.8-.3 1.5-.6 2.3-.8-2.1-.6-4.1-1-6-1.2zm9.2 2.2c-1.5.4-3.1.9-4.7 1.6-2.1.8-4 1.8-5.8 2.8-.1 1.3-.2 2.7-.2 4.1 0 1.4.1 2.8.2 4.1 1.7 1 3.7 2 5.7 2.8 1.6.6 3.2 1.2 4.7 1.6.4-.2.8-.3 1.3-.5 1.3-.5 2.6-1.1 3.8-1.7.3-2 .5-4.1.5-6.3s-.2-4.4-.5-6.4c-1.2-.6-2.4-1.2-3.7-1.7-.5-.1-.9-.3-1.3-.4zm13.9 9c1.6 1.9 2.5 3.9 2.5 5.6 0 .9-.1 1-.8 1.6-1.9 1.6-5.3 2.2-9.4 1.9.3-1.1.5-2.3.7-3.6 2.9-1.6 5.3-3.5 7-5.5zm-9.5 9c.2-.7.3-1.5.5-2.2-1.1.5-2.2 1.1-3.3 1.5-.1 0-.2.1-.3.1 1 .3 2.1.5 3.1.6zm-15.6-5.8c-.1-1.2-.2-2.4-.2-3.7 0-1.2.1-2.5.2-3.6-1.8 1.2-3.4 2.4-4.7 3.7 1.3 1.2 2.9 2.4 4.7 3.6z" fill="#3742FA"/></g></svg>