<?xml version="1.0" encoding="UTF-8"?>
<svg width="161px" height="62px" viewBox="0 0 161 62" version="1.1" xmlns="http://www.w3.org/2000/svg" xmlns:xlink="http://www.w3.org/1999/xlink">
    <!-- Generator: sketchtool 51 (57462) - http://www.bohemiancoding.com/sketch -->
    <title>0B3204A1-1292-4C6A-AA37-3FDFDA20DE2F</title>
    <desc>Created with sketchtool.</desc>
    <defs></defs>
    <g id="Page-1" stroke="none" stroke-width="1" fill="none" fill-rule="evenodd">
        <g id="Главная-12-колонок" transform="translate(-165.000000, -112.000000)">
            <rect fill="#FFFFFF" x="0" y="0" width="1440" height="5872"></rect>
            <g id="Шапка" transform="translate(0.000000, 71.000000)">
                <g id="лого" transform="translate(165.000000, 41.000000)">
                    <path d="M3.2,52.5 L4.8,52.5 L8,60.8 L6.3,60.8 L5.7,59.1 L2.3,59.1 L1.6,60.8 L0,60.8 L3.2,52.5 Z M4,54.7 L2.9,57.6 L5.1,57.6 L4,54.7 Z M9.2,52.5 L13.3,52.5 L13.3,54 L10.8,54 L10.8,60.7 L9.2,60.7 L9.2,52.5 Z M14.5,52.5 L19,52.5 L19,54 L16.1,54 L16.1,55.5 L19,55.5 L19,57 L16.1,57 L16.1,59.2 L19,59.2 L19,60.7 L14.5,60.7 L14.5,52.5 Z M20.5,52.5 L22.1,52.5 L22.1,55.6 L24.9,55.6 L24.9,52.5 L26.5,52.5 L26.5,60.8 L24.9,60.8 L24.9,57.2 L22.1,57.2 L22.1,60.8 L20.5,60.8 L20.5,52.5 Z M27.5,52.5 L32.1,52.5 L32.1,54.1 L30.6,54.1 L30.6,60.8 L29,60.8 L29,54.1 L27.5,54.1 L27.5,52.5 Z M40.7,54 L39.6,55 C38.9,54.2 38,53.8 37.1,53.8 C36.3,53.8 35.6,54.1 35.1,54.6 C34.6,55.1 34.3,55.8 34.3,56.6 C34.3,57.2 34.4,57.6 34.7,58.1 C34.9,58.5 35.3,58.9 35.7,59.1 C36.1,59.3 36.6,59.5 37.2,59.5 C37.7,59.5 38.1,59.4 38.5,59.2 C38.9,59 39.3,58.7 39.7,58.3 L40.8,59.4 C40.2,60 39.6,60.4 39.1,60.6 C38.6,60.8 37.9,60.9 37.2,60.9 C35.9,60.9 34.9,60.5 34,59.7 C33.2,58.9 32.8,57.8 32.8,56.6 C32.8,55.8 33,55 33.4,54.4 C33.8,53.8 34.3,53.2 35,52.9 C35.7,52.5 36.4,52.3 37.2,52.3 C37.9,52.3 38.5,52.4 39.2,52.7 C39.7,53 40.3,53.4 40.7,54 Z M41.3,52.5 L45.9,52.5 L45.9,54.1 L44.4,54.1 L44.4,60.8 L42.8,60.8 L42.8,54.1 L41.3,54.1 L41.3,52.5 Z M46.9,60.8 L46.9,52.5 L48.2,52.5 C49,52.5 49.5,52.5 49.9,52.6 C50.4,52.7 50.8,53 51.1,53.3 C51.4,53.7 51.5,54.1 51.5,54.6 C51.5,54.9 51.4,55.2 51.3,55.5 C51.2,55.8 51,56 50.7,56.2 C51.2,56.4 51.6,56.7 51.8,57.1 C52,57.5 52.1,57.9 52.1,58.4 C52.1,58.9 52,59.3 51.7,59.7 C51.5,60.1 51.1,60.4 50.8,60.6 C50.4,60.8 49.9,60.9 49.2,60.9 L46.9,60.9 L46.9,60.8 Z M48.5,54 L48.5,55.8 L48.9,55.8 C49.3,55.8 49.6,55.7 49.8,55.6 C50,55.4 50.1,55.2 50.1,54.9 C50.1,54.6 50,54.4 49.8,54.3 C49.6,54.1 49.3,54.1 49,54.1 L48.5,54.1 L48.5,54 Z M48.5,57.2 L48.5,59.3 L48.9,59.3 C49.6,59.3 50,59.2 50.2,59.1 C50.4,58.9 50.5,58.7 50.5,58.4 C50.5,58 50.4,57.8 50.1,57.6 C49.8,57.4 49.4,57.3 48.8,57.3 L48.5,57.3 L48.5,57.2 Z M57.5,52.3 C58.7,52.3 59.7,52.7 60.5,53.6 C61.3,54.4 61.8,55.5 61.8,56.7 C61.8,57.9 61.4,58.9 60.6,59.8 C59.8,60.6 58.8,61.1 57.6,61.1 C56.4,61.1 55.3,60.7 54.5,59.8 C53.7,58.9 53.3,57.9 53.3,56.7 C53.3,55.9 53.5,55.2 53.9,54.5 C54.3,53.8 54.8,53.3 55.5,52.9 C56,52.5 56.7,52.3 57.5,52.3 Z M57.5,53.8 C56.7,53.8 56.1,54.1 55.6,54.6 C55.1,55.1 54.8,55.8 54.8,56.6 C54.8,57.5 55.1,58.2 55.8,58.8 C56.3,59.2 56.9,59.4 57.5,59.4 C58.2,59.4 58.9,59.1 59.4,58.6 C59.9,58.1 60.2,57.4 60.2,56.6 C60.2,55.8 59.9,55.1 59.4,54.6 C58.8,54.1 58.2,53.8 57.5,53.8 Z M105.8,52.5 L107.5,52.5 C108.4,52.5 109.1,52.6 109.5,52.8 C109.9,53 110.2,53.2 110.4,53.6 C110.6,54 110.7,54.4 110.7,54.9 C110.7,55.5 110.5,56 110.2,56.3 C109.9,56.7 109.5,57 109,57.1 C108.7,57.2 108.1,57.2 107.3,57.2 L107.3,60.7 L105.7,60.7 L105.7,52.5 L105.8,52.5 Z M107.3,55.7 L107.8,55.7 C108.2,55.7 108.5,55.7 108.6,55.6 C108.8,55.5 108.9,55.4 109,55.3 C109.1,55.2 109.1,55 109.1,54.8 C109.1,54.5 109,54.2 108.7,54.1 C108.5,54 108.2,53.9 107.7,53.9 L107.3,53.9 L107.3,55.7 Z M112.2,52.5 L116.7,52.5 L116.7,54 L113.8,54 L113.8,55.5 L116.7,55.5 L116.7,57 L113.8,57 L113.8,59.2 L116.7,59.2 L116.7,60.7 L112.2,60.7 L112.2,52.5 Z M118.2,52.5 L119.8,52.5 L119.8,55.4 L122,52.5 L123.9,52.5 L121,56.2 L124.2,60.8 L122.3,60.8 L119.8,57.1 L119.8,60.8 L118.2,60.8 L118.2,52.5 Z M130.7,60.8 L128.4,54.7 L126.1,60.8 L124.4,60.8 L127.6,52.5 L129.2,52.5 L132.4,60.8 L130.7,60.8 Z M135.8,52.5 L137.4,52.5 L140.6,60.8 L139,60.8 L138.4,59.1 L135,59.1 L134.3,60.8 L132.7,60.8 L135.8,52.5 Z M136.6,54.7 L135.5,57.6 L137.7,57.6 L136.6,54.7 Z M142.6,52.5 L144.1,52.5 L146,58.3 L147.9,52.5 L149.4,52.5 L150.8,60.8 L149.3,60.8 L148.4,55.6 L146.7,60.8 L145.3,60.8 L143.6,55.6 L142.7,60.8 L141.2,60.8 L142.6,52.5 Z M158.4,52.5 L160,52.5 L160,60.8 L158.4,60.8 L158.4,52.5 Z M152.1,60.8 L152.1,52.5 L153.7,52.5 L153.7,55.6 L154,55.6 C154.7,55.6 155.2,55.7 155.6,55.8 C156,56 156.4,56.2 156.7,56.7 C157,57.1 157.2,57.6 157.2,58.2 C157.2,58.8 157.1,59.2 156.8,59.6 C156.5,60 156.2,60.3 155.9,60.4 C155.5,60.6 155,60.6 154.4,60.6 L152.1,60.6 L152.1,60.8 Z M153.7,57 L153.7,59.3 L154.1,59.3 C154.8,59.3 155.2,59.2 155.4,59.1 C155.6,58.9 155.7,58.7 155.7,58.3 C155.7,57.5 155.1,57.1 154,57.1 L153.7,57.1 L153.7,57 Z M66.3,52.5 L67.9,52.5 L67.9,60.8 L66.3,60.8 L66.3,52.5 Z M69.7,52.5 L71.2,52.5 L74.8,58 L74.8,52.5 L76.4,52.5 L76.4,60.8 L74.9,60.8 L71.4,55.4 L71.4,60.8 L69.8,60.8 L69.8,52.5 L69.7,52.5 Z M78.2,52.5 L80.1,52.5 C81.3,52.5 82.2,52.7 82.8,52.9 C83.4,53.2 83.9,53.7 84.2,54.4 C84.6,55.1 84.8,55.9 84.8,56.8 C84.8,57.4 84.7,58 84.5,58.6 C84.3,59.1 84,59.6 83.6,59.9 C83.2,60.3 82.8,60.5 82.4,60.6 C82,60.7 81.2,60.8 80.1,60.8 L78.2,60.8 L78.2,52.5 Z M79.8,54 L79.8,59.2 L80.5,59.2 C81.2,59.2 81.7,59.1 82.1,59 C82.4,58.8 82.7,58.6 82.9,58.2 C83.1,57.8 83.2,57.3 83.2,56.8 C83.2,55.9 83,55.2 82.5,54.8 C82,54.2 81.3,54 80.3,54 L79.8,54 Z M90.1,52.3 C91.3,52.3 92.3,52.7 93.1,53.6 C93.9,54.4 94.4,55.5 94.4,56.7 C94.4,57.9 94,58.9 93.2,59.8 C92.4,60.6 91.4,61.1 90.2,61.1 C89,61.1 87.9,60.7 87.1,59.8 C86.3,58.9 85.9,57.9 85.9,56.7 C85.9,55.9 86.1,55.2 86.5,54.5 C86.9,53.8 87.4,53.3 88.1,52.9 C88.6,52.5 89.4,52.3 90.1,52.3 Z M90.1,53.8 C89.3,53.8 88.7,54.1 88.2,54.6 C87.7,55.1 87.4,55.8 87.4,56.6 C87.4,57.5 87.7,58.2 88.4,58.8 C88.9,59.2 89.5,59.4 90.1,59.4 C90.8,59.4 91.5,59.1 92,58.6 C92.5,58.1 92.8,57.4 92.8,56.6 C92.8,55.8 92.5,55.1 92,54.6 C91.5,54.1 90.9,53.8 90.1,53.8 Z M96,52.5 L97.7,52.5 C98.6,52.5 99.3,52.6 99.7,52.7 C100.1,52.9 100.4,53.1 100.6,53.5 C100.8,53.9 101,54.3 101,54.8 C101,55.3 100.9,55.8 100.6,56.2 C100.3,56.6 99.9,56.8 99.4,57 L101.3,60.7 L99.6,60.7 L97.7,57.2 L97.5,57.2 L97.5,60.7 L96,60.7 L96,52.5 Z M97.6,55.7 L98.1,55.7 C98.6,55.7 99,55.6 99.1,55.5 C99.3,55.4 99.4,55.1 99.4,54.8 C99.4,54.6 99.4,54.5 99.3,54.3 C99.2,54.2 99.1,54.1 98.9,54 C98.7,54.1 98.4,54 98,54 L97.6,54 L97.6,55.7 Z" id="Shape" fill="#000000" fill-rule="nonzero"></path>
                    <g id="Group">
                        <path d="M73,24.1 C73.8,25.5 74.4,26.9 74.6,28.5 C74.9,30.8 74.2,33.4 72.7,35.1 C70.3,37.9 66.3,38.8 62.6,38.9 C61.2,42.3 58.8,45.7 55.4,46.8 C53.2,47.5 50.6,47.2 48.6,46.1 C45.9,44.6 44,41.8 42.8,38.9 C38.9,38.8 34.6,37.8 32.4,34.5 C30,31 30.5,27.3 32.4,24.1 C30.5,20.9 30,17.2 32.4,13.7 C34.7,10.4 38.9,9.4 42.8,9.3 C44.4,5.7 46.9,2.1 50.8,1.2 C56.9,-0.2 60.6,4.3 62.7,9.3 C66.4,9.4 70.4,10.3 72.8,13.1 C74.3,14.9 75,17.4 74.7,19.7 C74.4,21.3 73.8,22.8 73,24.1 Z" id="Shape" fill="#A2C7FF"></path>
                        <path d="M35.1,26.8 C35.3,26.8 35.4,26.8 35.6,26.8 C35.7,26.8 35.8,26.8 35.8,26.8 L36.4,26.8 C36.8,26.8 37.3,26.8 37.7,26.9 C38.2,26.9 38.7,27 39.2,27.1 C39.7,27.2 40.2,27.3 40.6,27.5 C41.4,27.8 42.1,28.5 42.1,29.5 L42.1,29.9 L42,30.2 C41.6,31.3 40.8,32.2 39.9,33 C39.3,33.5 38.7,33.9 38,34.2 C38,34.2 38,34.2 38,34.3 C38.2,34.7 38.3,35.1 38.5,35.6 C38.7,36.1 38.8,36.6 38.8,37.1 C38.8,38 38.4,38.8 37.6,39.3 C37.1,39.7 36.5,40 35.9,40.3 C35,40.8 34.1,41 33.1,41 L33,41 C32,41 31.1,40.4 30.5,39.6 C30,39 29.6,38.4 29.3,37.7 C29,37.2 28.7,36.6 28.5,36.1 L28.4,36.1 C28.1,36.2 27.8,36.2 27.6,36.2 C27.5,36.2 27.4,36.2 27.3,36.2 C24.3,37.3 21.1,38.2 17.9,39 C13.6,40 9.3,40.8 5,41.5 L4.9,41.5 L4.5,41.5 C3,41.5 2,40.5 1.8,39.1 L1.8,39 L1.8,37 L2.5,37 C2.7,36.8 2.8,36.7 2.9,36.5 C3.2,36.2 3.4,35.8 3.7,35.5 C4,35 4.2,34.6 4.4,34.1 C4.5,33.8 4.6,33.5 4.6,33.2 L4.6,32.9 L4.7,32.6 C4.8,32.4 4.9,32.2 4.9,32 C5,31.8 5,31.7 5.1,31.5 L5,31.5 C4.6,31.6 4.2,31.6 3.8,31.7 C3.6,31.7 3.3,31.7 3.1,31.7 C2.3,31.7 1.4,31.5 0.8,30.9 L0,30.1 L0.6,29 C1,28.3 1.6,27.7 2.1,27.1 C2.8,26.4 3.6,25.7 4.5,25.2 L5.1,24.8 L5.2,24.8 C5.7,24.6 6.4,24.3 7,24.3 L8,24.3 C8.3,23.9 8.5,23.5 8.7,23 C9,22.3 9.2,21.7 9.4,21 C9.6,20.2 9.8,19.5 10.1,18.7 C10.7,16.8 11.3,14.8 11.9,12.9 C12.3,11.4 12.8,10 13.2,8.5 C13.5,7.4 13.8,6.3 14.4,5.3 C15,4.2 16.1,3.6 17.2,3.2 C18.7,2.5 20.5,1.6 22.2,1.4 L23.3,1.3 L23.8,2.3 C24.8,4.1 25.7,5.9 26.7,7.8 C27.7,9.7 28.5,11.7 29.4,13.6 C30.7,16.4 31.9,19.1 33.2,21.9 C33.7,23.6 34.4,25.2 35.1,26.8 Z M12,33.4 C12,33.4 12,33.5 12,33.4 L12,33.8 L11.9,34 C11.8,34.2 11.8,34.3 11.7,34.5 C13,34.5 14.3,34.3 15.6,34.2 C16.8,34.1 18,33.9 19.2,33.7 C18.4,33.6 17.6,33.4 16.8,33.3 C15.7,33.1 14.6,32.9 13.5,32.9 C13,32.9 12.5,33 12.1,33.2 C12.1,33.3 12,33.4 12,33.4 Z M16.7,24.9 C17.2,25 17.8,25 18.1,25 C19.4,25 20.8,25.2 22.1,25.4 C22.8,25.5 23.5,25.6 24.2,25.7 C24.1,25.5 24.1,25.4 24,25.2 L22.8,22.1 C22.1,20.4 21.4,18.7 20.6,17 C20.4,16.6 20.2,16.3 20.1,15.9 C19.8,16.5 19.6,17.1 19.3,17.7 C18.9,18.7 18.5,19.7 18.1,20.7 C17.7,21.6 17.4,22.6 17.1,23.6 C16.9,24 16.8,24.5 16.7,24.9 Z" id="Shape" fill="#A2C7FF"></path>
                        <path d="M17.5,36.5 C17,36.6 16.4,36.6 15.9,36.7 C14.5,36.9 13.1,37 11.8,37 L8.2,37 L9.5,33.6 C9.5,33.5 9.6,33.4 9.6,33.4 C9.6,33.3 9.6,33.3 9.6,33.2 L9.7,32.4 L10.2,31.8 C10.4,31.6 10.7,31.4 10.9,31.2 C11.7,30.7 12.6,30.5 13.6,30.5 C14.9,30.5 16.1,30.7 17.3,30.9 C18.1,31 18.9,31.2 19.7,31.3 L34.7,34 L30.5,34.6 L30.7,35.1 C30.9,35.6 31.1,36 31.4,36.5 C31.7,37 32.1,37.6 32.4,38.1 C32.5,38.2 32.8,38.6 32.9,38.6 L33.2,38.6 C33.8,38.6 34.3,38.4 34.8,38.2 C35.2,38 35.7,37.7 36.1,37.4 L36.2,37.3 L36.3,37.3 C36.3,37 36.2,36.8 36.1,36.5 C36,36.1 35.8,35.8 35.7,35.4 C35.7,35.4 35.7,35.3 35.7,35.3 L34.8,33.1 L37,32.1 C37.5,31.9 37.9,31.6 38.3,31.3 C38.8,30.9 39.2,30.5 39.5,29.9 C39.3,29.8 39,29.8 38.7,29.7 C38.3,29.6 37.9,29.6 37.4,29.5 C37,29.5 36.7,29.5 36.3,29.5 L35.7,29.5 C35.6,29.5 35.5,29.5 35.5,29.5 C35.2,29.5 35,29.5 34.8,29.4 L33.3,29.2 L32.8,27.8 C32.2,26.2 31.5,24.6 30.8,23 C29.6,20.2 28.3,17.5 27.1,14.8 C26.2,12.9 25.3,10.9 24.4,9 C23.6,7.4 22.7,5.7 21.9,4.1 C20.7,4.4 19.3,5 18.2,5.6 L18,5.6 L17.8,5.7 C17.3,5.9 16.6,6.2 16.4,6.7 C16,7.5 15.7,8.5 15.4,9.3 C15,10.8 14.6,12.3 14.1,13.8 C13.5,15.7 12.9,17.7 12.3,19.6 C12.1,20.3 11.9,21.1 11.7,21.8 C11.5,22.6 11.2,23.3 10.9,24.1 C10.6,24.8 10.3,25.4 9.8,26 L9.1,26.9 L6.9,26.9 C6.7,26.9 6.3,27.1 6.1,27.2 L5.6,27.5 C4.9,27.9 4.3,28.4 3.7,29 C3.6,29.1 3.4,29.3 3.3,29.4 C3.4,29.4 3.4,29.4 3.5,29.4 C3.8,29.4 4.2,29.3 4.5,29.3 L4.7,29.3 L8.5,29.3 L7.3,32.6 C7.2,32.8 7.2,32.9 7.1,33.1 C7,33.3 7,33.5 6.9,33.7 C6.9,34.3 6.7,34.9 6.5,35.4 C6.2,36 6,36.5 5.6,37 C5.3,37.5 5,37.9 4.6,38.3 C4.4,38.5 4.3,38.7 4.1,38.8 L4,38.9 C4,39.1 4.1,39.2 4.3,39.2 L4.5,39.2 C8.7,38.5 13,37.8 17.1,36.8 C17.4,36.5 17.5,36.5 17.5,36.5 Z M14.3,24.3 C14.4,23.8 14.5,23.3 14.7,22.9 C15,21.9 15.4,20.9 15.7,19.9 C16.1,18.9 16.5,17.8 16.9,16.8 C17.2,16.2 17.4,15.6 17.7,14.9 L19.8,10.3 L22.1,14.8 C22.3,15.2 22.5,15.6 22.7,16 C23.5,17.7 24.3,19.5 25,21.3 L26.2,24.4 C26.3,24.5 26.3,24.7 26.4,24.8 L28.1,28.8 L23.8,28.2 C23.1,28.1 22.4,28 21.7,27.9 C20.5,27.7 19.3,27.6 18.2,27.5 C17.6,27.5 17,27.5 16.4,27.4 L13.8,27 L14.3,24.3 Z" id="Shape" fill="#3742FA"></path>
                        <path d="M118.9,24.9 C119.2,24.2 119.6,23.6 120.1,23 L122,21.2 C122,21.1 122.1,20.8 122.1,20.7 L122.1,15.7 C122.1,12.5 123.9,10.3 127.2,10.3 L154.7,10.3 C158,10.3 160.1,12.3 160.1,15.6 L160.1,36.6 C160.1,37.6 159.7,38.6 159.1,39.3 C158.4,40.1 157.3,40.5 156.2,40.5 L154.6,40.5 C152.1,40.5 150.3,39 150.3,36.4 L150.3,20 L146,20 L146,36.6 C146,37.6 145.6,38.6 144.9,39.3 C144.2,40.1 143.2,40.5 142.1,40.5 L140.5,40.5 C138,40.5 136.2,39 136.2,36.4 L136.2,20 L131.9,20 L131.9,36.4 C131.9,38.9 130.1,40.5 127.7,40.5 L122.7,40.5 C120.5,40.5 118.9,39.3 118.6,37.3 C118.4,37.8 118.1,38.3 117.7,38.7 C116.7,39.9 115.3,40.5 113.8,40.5 L97,40.5 C95.5,40.5 94.1,40 93,39.1 C91.8,38.1 91.2,36.7 91.2,35.2 L91.2,19.5 C90.4,19.9 89.5,20 88.6,20 L83.4,20 L83.4,20.6 C83.4,20.7 83.4,20.9 83.4,21 L85.3,22.8 C86.7,24.1 87,26 87,27.8 L87,36.4 C87,38.9 85.3,40.5 82.8,40.5 L77.8,40.5 C75.3,40.5 73.6,38.9 73.6,36.4 L73.6,20 L68.3,20 C67.1,20 66,19.8 65.1,19 C64.2,18.2 63.8,17 63.8,15.8 L63.8,14.4 C63.8,11.7 65.9,10.3 68.4,10.3 L88.6,10.3 C90.3,10.3 91.8,10.9 92.6,12.1 C93.6,10.9 95.2,10.3 97.2,10.3 L113.7,10.3 C115.1,10.3 116.3,10.7 117.4,11.6 C118.4,12.5 119.1,13.7 119.1,15 L119.1,24.9 L118.9,24.9 Z M109.1,30.9 L109.1,20 L101,20 L101,20.6 C101,20.7 101,20.9 101.1,21 L103,22.8 C104.4,24.1 104.7,26 104.7,27.8 L104.7,30.8 C104.7,30.8 104.7,30.8 104.8,30.8 L109.1,30.9 C109.1,30.9 109.1,30.9 109.1,30.9 Z" id="Shape" fill="#A2C7FF"></path>
                        <path d="M66.5,17.2 C66.9,17.5 67.6,17.6 68.1,17.6 L75.9,17.6 L75.9,36.5 C75.9,37.7 76.5,38.2 77.7,38.2 L82.7,38.2 C83.8,38.2 84.5,37.7 84.5,36.5 L84.5,27.9 C84.5,26.8 84.4,25.5 83.5,24.7 L81.2,22.5 L81,21.9 C80.9,21.5 80.8,21.1 80.8,20.7 L80.8,17.6 L88.5,17.6 C88.9,17.6 89.6,17.6 90,17.3 L92.1,16.2 L90.4,13.6 C90,13 89.1,12.9 88.5,12.9 L68.2,12.9 C67.1,12.9 66,13.2 66,14.5 L66,15.9 C66.1,16.3 66.2,16.8 66.5,17.2 Z M92.3,16.1 L93.6,15.4 L93.6,35.2 C93.6,36 94,36.7 94.6,37.3 C95.3,37.9 96.1,38.1 97,38.1 L113.6,38.1 C114.4,38.1 115.1,37.8 115.6,37.2 C115.8,36.9 116,36.7 116.1,36.4 L116.3,35.9 L116.3,15.1 C116.3,14.5 115.9,13.9 115.5,13.5 C114.9,13 114.2,12.8 113.4,12.8 L97,12.8 C96,12.8 94.9,13 94.3,13.8 L92.3,16.1 Z M110.6,32.9 C110.5,32.9 110.5,33 110.4,33 L109.8,33.4 L104.2,33.4 L103.7,33.2 C103.6,33.2 103.5,33.1 103.4,33 L102.2,32.3 L102.2,27.9 C102.2,26.9 102.1,25.4 101.3,24.7 L99,22.5 L98.7,22 C98.5,21.6 98.5,21.1 98.5,20.7 L98.5,17.6 L111.5,17.6 L111.5,32.2 L110.6,32.9 Z M119.6,29.9 L120.9,37 C121.1,37.9 121.8,38.2 122.6,38.2 L127.6,38.2 C128.7,38.2 129.4,37.7 129.4,36.5 L129.4,17.6 L138.6,17.6 L138.6,36.6 C138.6,37.8 139.3,38.2 140.5,38.2 L142.1,38.2 C142.5,38.2 142.8,38.1 143.1,37.8 C143.4,37.5 143.5,37.2 143.5,36.8 L143.5,17.6 L152.7,17.6 L152.7,36.6 C152.7,37.8 153.5,38.2 154.6,38.2 L156.2,38.2 C156.6,38.2 157,38.1 157.2,37.8 C157.5,37.5 157.6,37.2 157.6,36.8 L157.6,15.8 C157.6,13.8 156.6,12.9 154.6,12.9 L127.1,12.9 C125.2,12.9 124.5,14 124.5,15.8 L124.5,20.8 C124.5,21.2 124.4,21.7 124.3,22.1 L124.1,22.6 L121.8,24.8 C121.5,25.1 121.3,25.4 121.2,25.7 L119.6,29.9 Z" id="Shape" fill="#3742FA"></path>
                        <path d="M62.1,24.2 C62.1,26 62,27.7 61.8,29.3 C64.4,27.7 66.6,25.9 68.2,24.1 C66.6,22.3 64.3,20.5 61.6,18.8 C61.9,21 62.1,22.9 62.1,24.2 Z M52.7,18 C56,18 58.6,20.7 58.6,24 C58.6,27.3 55.9,30 52.7,30 C49.4,30 46.8,27.3 46.8,24 C46.7,20.7 49.4,18 52.7,18 Z M68.6,23.6 C66.9,21.6 64.4,19.7 61.5,17.9 C61.3,16.8 61.1,15.6 60.8,14.4 C64.9,14.1 68.3,14.7 70.3,16.3 C71,16.9 71.1,17 71.1,17.9 C71.1,19.7 70.2,21.7 68.6,23.6 Z M49.3,32.9 C50.1,33.2 50.8,33.5 51.6,33.7 C49.5,34.3 47.5,34.7 45.6,34.8 C45.2,33.4 44.9,32 44.6,30.4 C46.4,31.6 48.1,32.4 49.3,32.9 Z M52.8,34.1 C50.3,34.9 47.9,35.3 45.7,35.5 C47,39.6 49.1,42.6 51.5,43.5 C52.3,43.8 52.5,43.8 53.3,43.3 C55.5,42.1 57.3,39.2 58.6,35.3 C56.7,35.1 54.8,34.7 52.8,34.1 Z M60.4,35.6 C59,39.9 56.9,42.9 54.4,43.8 C53.1,44.2 51.4,44 50.2,43.3 C48.1,42.1 46.3,39.4 45,35.6 C40.3,35.9 36.6,34.9 35,32.6 C33,29.8 34.1,26.8 36.4,24.1 C34.1,21.4 33.1,18.4 35,15.6 C36.6,13.4 40.3,12.3 45,12.6 C46.5,8.1 48.8,5 51.5,4.4 C56.1,3.3 58.8,7.6 60.4,12.6 C64.9,12.3 68.6,13.1 70.3,15.2 C71.2,16.3 71.6,17.9 71.4,19.3 C71.2,20.8 70.4,22.5 69.1,24.1 C70.4,25.7 71.2,27.4 71.4,28.9 C71.6,30.3 71.2,31.9 70.3,33 C68.5,35 64.9,35.9 60.4,35.6 Z M59.5,16.9 C59.4,16.1 59.2,15.4 59,14.7 C58,14.8 56.9,15 55.8,15.3 C55.9,15.3 56,15.4 56.1,15.4 C57.4,15.8 58.5,16.4 59.5,16.9 Z M52.8,14.2 C54.8,13.6 56.8,13.2 58.6,12.9 C57.3,8.7 55.2,5.7 52.8,4.7 C52.2,4.4 52,4.5 51.4,4.8 C49.1,5.8 47.1,8.7 45.8,12.8 C47.9,12.9 50.3,13.4 52.8,14.2 Z M37.6,25.4 C35.8,27.5 34.8,29.6 34.8,31.4 C34.8,32.1 34.9,32.2 35.4,32.7 C37.2,34.5 40.6,35.2 44.8,34.9 C44.3,33.4 44,31.8 43.7,30 C41.6,28.7 39.4,27.1 37.6,25.4 Z M35.4,15.6 C34.9,16.1 34.8,16.2 34.8,16.9 C34.8,18.8 35.8,20.8 37.6,22.9 C39.4,21.1 41.6,19.6 43.8,18.3 C44.1,16.6 44.4,14.9 44.9,13.4 C40.6,13.1 37.2,13.8 35.4,15.6 Z M45.5,13.4 C45.1,14.8 44.8,16.2 44.5,17.8 C46.4,16.7 48.1,15.9 49.2,15.4 C50,15.1 50.7,14.8 51.5,14.6 C49.4,14 47.4,13.6 45.5,13.4 Z M54.7,15.6 C53.2,16 51.6,16.5 50,17.2 C47.9,18 46,19 44.2,20 C44.1,21.3 44,22.7 44,24.1 C44,25.5 44.1,26.9 44.2,28.2 C45.9,29.2 47.9,30.2 49.9,31 C51.5,31.6 53.1,32.2 54.6,32.6 C55,32.4 55.4,32.3 55.9,32.1 C57.2,31.6 58.5,31 59.7,30.4 C60,28.4 60.2,26.3 60.2,24.1 C60.2,21.9 60,19.7 59.7,17.7 C58.5,17.1 57.3,16.5 56,16 C55.5,15.9 55.1,15.7 54.7,15.6 Z M68.6,24.6 C70.2,26.5 71.1,28.5 71.1,30.2 C71.1,31.1 71,31.2 70.3,31.8 C68.4,33.4 65,34 60.9,33.7 C61.2,32.6 61.4,31.4 61.6,30.1 C64.5,28.5 66.9,26.6 68.6,24.6 Z M59.1,33.6 C59.3,32.9 59.4,32.1 59.6,31.4 C58.5,31.9 57.4,32.5 56.3,32.9 C56.2,32.9 56.1,33 56,33 C57,33.3 58.1,33.5 59.1,33.6 Z M43.5,27.8 C43.4,26.6 43.3,25.4 43.3,24.1 C43.3,22.9 43.4,21.6 43.5,20.5 C41.7,21.7 40.1,22.9 38.8,24.2 C40.1,25.4 41.7,26.6 43.5,27.8 Z" id="Shape" fill="#3742FA"></path>
                    </g>
                </g>
            </g>
        </g>
    </g>
</svg>