<svg width="65" height="54" xmlns="http://www.w3.org/2000/svg"><g fill="none" fill-rule="evenodd"><path fill="#FFF" d="M-1068-929H372v5872h-1440z"/><g fill="#3742FA" fill-rule="nonzero"><path d="M59.583 54H5.417C2.425 54 0 51.582 0 48.6V5.4C0 2.418 2.425 0 5.417 0h54.166C62.575 0 65 2.418 65 5.4v43.2c0 2.982-2.425 5.4-5.417 5.4zM5.417 5.4v43.2h54.166V5.4H5.417z"/><path d="M20.096 39.906L8.965 32.508l3.737-5.616 5.119 3.402 9.019-15.768 5.904 3.348zM37.917 18.9h16.25v5.4h-16.25zm0 10.8h16.25v5.4h-16.25z"/></g></g></svg>