<svg width="54" height="54" xmlns="http://www.w3.org/2000/svg"><g fill="none" fill-rule="evenodd"><path fill="#FFF" d="M-314-929h1440v5872H-314z"/><g fill="#3742FA" fill-rule="nonzero"><path d="M45.867 45H8.133c-1.293.026-2.424-.816-2.695-2.007l-5.39-20.32c-.197-.972.224-1.963 1.078-2.54a2.832 2.832 0 0 1 2.991-.152l11.293 6.35 9.353-13.208C25.263 12.421 26.103 12 27 12c.898 0 1.736.421 2.237 1.123l9.353 13.208 11.293-6.375a2.831 2.831 0 0 1 2.991.177c.854.577 1.275 1.568 1.078 2.54l-5.39 20.32c-.271 1.191-1.402 2.033-2.695 2.006zm-35.631-5.08h33.528l3.289-12.446-7.897 4.47c-1.228.688-2.813.354-3.612-.762L27 19.092l-8.544 12.09c-.8 1.116-2.384 1.45-3.612.762l-7.897-4.47 3.289 12.446zM8.471 49h38.118v5H8.471z"/><rect transform="rotate(-45 27 5.5)" x="23.294" y="2" width="7.412" height="7" rx=".5"/></g></g></svg>